<svg width="53" height="58" viewBox="0 0 54 58" fill="none" xmlns="http://www.w3.org/2000/svg">
<g id="&#208;&#152;&#208;&#186;&#208;&#190;&#208;&#189;&#208;&#186;&#208;&#176;">
<path id="Vector" d="M20.3314 4.72804C20.7926 4.72804 21.1664 4.35323 21.1664 3.89087C21.1664 3.42852 20.7926 3.05371 20.3314 3.05371C19.8703 3.05371 19.4965 3.42852 19.4965 3.89087C19.4965 4.35323 19.8703 4.72804 20.3314 4.72804Z" fill="#8ED74F"/>
<path id="Vector_2" d="M16.8372 27.6001H22.3653C22.6632 28.8168 23.7603 29.7221 25.0644 29.7221C26.3685 29.7221 27.4656 28.8167 27.7636 27.6001H30.2085C30.6698 27.6001 31.0435 27.2252 31.0435 26.7629V23.4761C31.0435 22.4399 30.2359 21.5713 29.205 21.4986L24.5674 21.1712L23.7509 19.2335H23.751C23.3378 18.2531 22.3849 17.6196 21.3234 17.6196C19.6303 17.6196 17.2705 17.6196 15.4377 17.6196C14.3704 17.6196 13.4155 18.2579 13.005 19.2457L12.193 21.2L9.97481 21.4788C9.10879 21.5878 8.45563 22.33 8.45563 23.2051V26.7629C8.45563 27.2252 8.82936 27.6001 9.29059 27.6001H11.4388C11.7367 28.8168 12.8338 29.7221 14.1379 29.7221C15.442 29.7221 16.5393 28.8167 16.8372 27.6001ZM25.0645 28.0478C24.453 28.0478 23.9555 27.5489 23.9555 26.9358C23.9555 26.3237 24.459 25.8238 25.0645 25.8238C25.669 25.8238 26.1736 26.3223 26.1736 26.9358C26.1736 27.5489 25.6761 28.0478 25.0645 28.0478ZM22.2128 19.8851L22.7388 21.133H18.4704V19.2938H21.3236C21.7123 19.2938 22.0615 19.5259 22.2128 19.8851ZM14.5466 19.8896C14.697 19.5277 15.0468 19.2938 15.4378 19.2938H16.8003V21.133H14.0299L14.5466 19.8896ZM10.1257 23.2051C10.1257 23.1721 10.1503 23.1442 10.1828 23.1401L12.8297 22.8074H23.9685L29.0879 23.1687C29.2481 23.1799 29.3736 23.315 29.3736 23.476V25.9256H27.657C27.2551 24.8741 26.2463 24.1494 25.0644 24.1494C23.8826 24.1494 22.8737 24.8741 22.4718 25.9256H16.7307C16.3286 24.8741 15.3199 24.1494 14.138 24.1494C12.9562 24.1494 11.9473 24.8741 11.5454 25.9256H10.1257V23.2051ZM14.138 28.0478C13.5265 28.0478 13.029 27.5489 13.029 26.9358C13.029 26.3237 13.5325 25.8238 14.138 25.8238C14.7414 25.8238 15.2471 26.3214 15.2471 26.9358C15.2471 27.5489 14.7496 28.0478 14.138 28.0478Z" fill="#8ED74F"/>
<path id="Vector_3" d="M32.0141 17.9808L30.2859 14.9796C30.0269 14.5294 29.5626 14.2607 29.0442 14.2607C28.5258 14.2607 28.0616 14.5295 27.8025 14.9796L26.0744 17.9808C25.8152 18.4308 25.8151 18.9683 26.0743 19.4184C26.3334 19.8686 26.7977 20.1373 27.316 20.1373H30.7725C31.2909 20.1373 31.7551 19.8685 32.0143 19.4184C32.2735 18.9684 32.2732 18.4307 32.0141 17.9808ZM27.7247 18.4629L29.0442 16.1717L30.3635 18.4629H27.7247Z" fill="#8ED74F"/>
<path id="Vector_4" d="M13.7006 30.8384H10.0465C9.58528 30.8384 9.21155 31.2132 9.21155 31.6755V35.3392C9.21155 35.8015 9.58528 36.1764 10.0465 36.1764H13.7005C14.1617 36.1764 14.5355 35.8015 14.5355 35.3392V31.6755C14.5356 31.2132 14.1617 30.8384 13.7006 30.8384ZM12.8657 34.502H10.8815V32.5127H12.8656V34.502H12.8657Z" fill="#8ED74F"/>
<path id="Vector_5" d="M13.7006 37.2925H10.0465C9.58528 37.2925 9.21155 37.6673 9.21155 38.1296V41.7933C9.21155 42.2556 9.58528 42.6305 10.0465 42.6305H13.7005C14.1617 42.6305 14.5355 42.2556 14.5355 41.7933V38.1296C14.5356 37.6673 14.1617 37.2925 13.7006 37.2925ZM12.8657 40.9561H10.8815V38.9668H12.8656V40.9561H12.8657Z" fill="#8ED74F"/>
<path id="Vector_6" d="M13.7006 43.7466H10.0465C9.58528 43.7466 9.21155 44.1214 9.21155 44.5837V48.2474C9.21155 48.7097 9.58528 49.0845 10.0465 49.0845H13.7005C14.1617 49.0845 14.5355 48.7097 14.5355 48.2474V44.5837C14.5356 44.1213 14.1617 43.7466 13.7006 43.7466ZM12.8657 47.4101H10.8815V45.4208H12.8656V47.4101H12.8657Z" fill="#8ED74F"/>
<path id="Vector_7" d="M30.6162 30.8384H16.4838C16.0226 30.8384 15.6489 31.2132 15.6489 31.6755C15.6489 32.1379 16.0226 32.5127 16.4838 32.5127H30.6162C31.0775 32.5127 31.4512 32.1379 31.4512 31.6755C31.4512 31.2132 31.0774 30.8384 30.6162 30.8384Z" fill="#8ED74F"/>
<path id="Vector_8" d="M16.4838 35.3032H26.3289C26.7901 35.3032 27.1638 34.9284 27.1638 34.4661C27.1638 34.0037 26.7901 33.6289 26.3289 33.6289H16.4838C16.0226 33.6289 15.6489 34.0037 15.6489 34.4661C15.6489 34.9284 16.0226 35.3032 16.4838 35.3032Z" fill="#8ED74F"/>
<path id="Vector_9" d="M30.6162 37.2925H16.4838C16.0226 37.2925 15.6489 37.6673 15.6489 38.1296C15.6489 38.592 16.0226 38.9668 16.4838 38.9668H30.6162C31.0775 38.9668 31.4512 38.592 31.4512 38.1296C31.4512 37.6673 31.0774 37.2925 30.6162 37.2925Z" fill="#8ED74F"/>
<path id="Vector_10" d="M21.2647 40.083H16.4838C16.0226 40.083 15.6489 40.4578 15.6489 40.9202C15.6489 41.3825 16.0226 41.7573 16.4838 41.7573H21.2647C21.7259 41.7573 22.0996 41.3825 22.0996 40.9202C22.0996 40.4578 21.7258 40.083 21.2647 40.083Z" fill="#8ED74F"/>
<path id="Vector_11" d="M52.2699 22.7848C51.241 21.7532 49.5754 21.753 48.5462 22.7848L46.453 24.8835C46.2662 24.7434 46.0404 24.6678 45.8029 24.6678C45.5122 24.6678 45.2388 24.7813 45.0329 24.9874C44.177 25.8456 41.5085 28.5212 40.6628 29.3692V7.17487C40.6628 6.2272 39.8938 5.45612 38.9486 5.45612H31.1481V5.16121C31.1481 4.09132 30.28 3.22089 29.2128 3.22089H24.2467C23.8579 1.39499 22.2139 0.0449219 20.3314 0.0449219C18.4487 0.0449219 16.8046 1.3951 16.4162 3.221H11.45C10.3829 3.221 9.51475 4.09143 9.51475 5.16132V5.45623H1.71423C0.769053 5.45623 0 6.22731 0 7.17498V55.4766C0 56.4242 0.769053 57.1953 1.71423 57.1953H38.9486C39.8938 57.1953 40.6628 56.4242 40.6628 55.4766V39.4759L41.9882 38.147C42.3143 37.82 42.3143 37.2899 41.9882 36.9631C41.662 36.6362 41.1334 36.6362 40.8074 36.9631C40.279 37.4929 36.392 41.3902 35.887 41.8966L33.2086 39.2111C33.3472 39.0721 42.6282 29.7665 42.6847 29.7099L45.3631 32.3954L43.6539 34.1092C43.3278 34.4361 43.3278 34.9662 43.6539 35.293C43.9801 35.62 44.5087 35.62 44.8348 35.293L47.9329 32.1867L48.7184 32.9743L42.1003 39.6099C41.7742 39.9368 41.7742 40.4669 42.1003 40.7937C42.4265 41.1207 42.9551 41.1207 43.2812 40.7937L50.4897 33.5662C50.8157 33.2393 50.8157 32.7092 50.4897 32.3824L49.1136 31.0027L50.0731 30.0408C50.4594 29.6532 50.4939 29.0443 50.1764 28.6173L52.2697 26.5185C53.2988 25.4866 53.2989 23.8168 52.2699 22.7848ZM45.8029 26.5834C45.814 26.5946 48.6218 29.4099 48.4813 29.2689C47.7612 29.9909 47.2608 30.4926 46.544 31.2114L43.8655 28.5259L45.8029 26.5834ZM38.9486 7.13055C38.973 7.13055 38.9928 7.15053 38.9928 7.17498V31.0436L37.2662 32.7747V9.69874C37.2662 9.23641 36.8925 8.86158 36.4313 8.86158H31.148V7.13055H38.9486ZM11.1847 5.16132C11.1847 5.01465 11.3037 4.89533 11.45 4.89533H16.623C17.3185 4.89533 17.9215 4.38153 18.0258 3.7002C18.198 2.57081 19.1893 1.71925 20.3314 1.71925C21.4734 1.71925 22.4646 2.57092 22.6371 3.70008C22.7411 4.38153 23.3441 4.89533 24.0398 4.89533H29.2128C29.3591 4.89533 29.4782 5.01465 29.4782 5.16132V8.04574H16.6741C16.2129 8.04574 15.8392 8.42056 15.8392 8.8829C15.8392 9.34524 16.2129 9.72006 16.6741 9.72006H29.4782V11.4701H11.1848V9.72006H12.7778C13.239 9.72006 13.6127 9.34524 13.6127 8.8829C13.6127 8.42056 13.239 8.04574 12.7778 8.04574H11.1848V5.16132H11.1847ZM32.0278 40.3949L34.7061 43.0804L28.7426 49.0597L26.0642 46.3742L32.0278 40.3949ZM23.7466 49.5102C23.9413 48.7835 24.3246 48.1184 24.8552 47.5865L24.8835 47.5581L27.5618 50.2436L27.5335 50.272C27.003 50.804 26.3396 51.1883 25.6151 51.3835L23.0606 52.0715L23.7466 49.5102ZM28.7143 51.456C29.7661 50.4014 35.4651 44.6874 35.5963 44.5558V52.1155H27.9322C28.2104 51.9191 28.4723 51.6985 28.7143 51.456ZM31.4373 38.619C31.4367 38.6197 31.4359 38.6205 31.4352 38.6213L26.3232 43.7468H16.4838C16.0225 43.7468 15.6488 44.1216 15.6488 44.584C15.6488 45.0463 16.0225 45.4211 16.4838 45.4211H24.6532C23.6129 46.4642 23.635 46.4403 23.5442 46.5373H16.4838C16.0225 46.5373 15.6488 46.9122 15.6488 47.3745C15.6488 47.8368 16.0225 48.2117 16.4838 48.2117H22.4384C22.3153 48.4907 22.2134 48.7796 22.1339 49.0758L21.401 51.8115C21.374 51.9126 21.357 52.0143 21.3499 52.1155H5.06642V49.6635C5.06642 49.2012 4.69269 48.8264 4.23146 48.8264C3.77023 48.8264 3.3965 49.2012 3.3965 49.6635V52.9527C3.3965 53.415 3.77023 53.7899 4.23146 53.7899H36.4313C36.8925 53.7899 37.2662 53.415 37.2662 52.9527V42.8815L38.9928 41.1504V55.4766C38.9928 55.501 38.9729 55.521 38.9486 55.521H1.71423C1.68974 55.521 1.66992 55.501 1.66992 55.4766V7.17487C1.66992 7.15042 1.68985 7.13044 1.71423 7.13044H9.51475V8.86158H4.23146C3.77023 8.86158 3.3965 9.23641 3.3965 9.69874V45.7567C3.3965 46.219 3.77023 46.5938 4.23146 46.5938C4.69269 46.5938 5.06642 46.219 5.06642 45.7567V10.5359H9.51475V11.8875C9.51475 12.5806 10.0772 13.1444 10.7684 13.1444H29.8944C30.5857 13.1444 31.1481 12.5805 31.1481 11.8874V10.5359H35.5964V34.4489L31.4373 38.619ZM51.0889 25.3345L49.0039 27.4252C48.8587 27.2796 49.4337 27.8561 47.6418 26.0596L49.7268 23.9689C50.1032 23.5916 50.7123 23.5913 51.0888 23.9689C51.4653 24.346 51.4656 24.957 51.0889 25.3345Z" fill="#8ED74F"/>
<path id="Vector_12" d="M28.1523 46.966C28.4784 47.2929 29.0069 47.2929 29.3331 46.966L32.6183 43.6722C32.9444 43.3453 32.9444 42.8152 32.6183 42.4884C32.2922 42.1615 31.7636 42.1613 31.4374 42.4884L28.1523 45.7821C27.8262 46.109 27.8262 46.6391 28.1523 46.966Z" fill="#8ED74F"/>
</g>
</svg>
