<svg width="54" height="55" viewBox="0 0 54 55" fill="none" xmlns="http://www.w3.org/2000/svg">
<path d="M32.9472 23.9881L39.978 29.0062C40.2904 29.2293 40.7095 29.2293 41.022 29.0062L48.0528 23.9881C49.5174 22.948 50.3915 21.2632 50.4 19.4636V8.78674C50.4005 8.42744 50.1884 8.10207 49.86 7.95836L40.86 4.0601C40.6325 3.96174 40.3747 3.96174 40.1472 4.0601L31.1472 7.95836C30.8188 8.10207 30.6066 8.42744 30.6072 8.78674V19.4636C30.6141 21.2618 31.4854 22.9464 32.9472 23.9881ZM32.4 9.3796L40.5 5.87207L48.6 9.3796V19.4636C48.5934 20.6816 48.0004 21.8213 47.0079 22.5236L40.5 27.1636L33.9921 22.5182C33.0008 21.8173 32.4078 20.6798 32.4 19.4636V9.3796Z" fill="#8ED74F"/>
<path d="M38.16 21.5311C38.5488 21.8237 39.0991 21.7538 39.4029 21.3732L46.6029 12.3495C46.9135 11.9602 46.8507 11.3922 46.4625 11.0807C46.0743 10.7693 45.5077 10.8323 45.1971 11.2215L38.5371 19.563L35.64 17.3802C35.3827 17.1868 35.0421 17.1456 34.7464 17.2723C34.4507 17.3989 34.2449 17.6741 34.2064 17.9942C34.168 18.3142 34.3027 18.6306 34.56 18.824L38.16 21.5311Z" fill="#8ED74F"/>
<path d="M1.8 47.8808H2.7V51.4903C2.7 52.9854 3.90883 54.1974 5.4 54.1974H10.8C12.2912 54.1974 13.5 52.9854 13.5 51.4903V47.8808H35.1V51.4903C35.1 52.9854 36.3088 54.1974 37.8 54.1974H43.2C44.6912 54.1974 45.9 52.9854 45.9 51.4903V47.8808H46.8C47.7941 47.8808 48.6 47.0728 48.6 46.0761V32.5404C48.6033 31.2327 48.0346 29.9892 47.0439 29.1385L50.1399 26.9295C52.5528 25.2114 53.9903 22.4313 54 19.4641V6.41489C54.0005 6.0556 53.7884 5.73022 53.46 5.58651L40.86 0.128944C40.6325 0.0305862 40.3747 0.0305862 40.1472 0.128944L27.54 5.58651C27.2116 5.73022 26.9995 6.0556 27 6.41489V9.98107H13.383C11.4749 9.98172 9.77465 11.1888 9.1404 12.9932L3.8394 28.0953C1.63872 28.4201 0.00614445 30.3102 0 32.5404V46.0761C0 47.0728 0.805887 47.8808 1.8 47.8808ZM11.7 51.4903C11.7 51.9887 11.2971 52.3927 10.8 52.3927H5.4C4.90294 52.3927 4.5 51.9887 4.5 51.4903V47.8808H11.7V51.4903ZM8.1 46.0761H6.3V44.2713H8.1V46.0761ZM44.1 51.4903C44.1 51.9887 43.6971 52.3927 43.2 52.3927H37.8C37.3029 52.3927 36.9 51.9887 36.9 51.4903V47.8808H44.1V51.4903ZM42.3 46.0761H40.5V44.2713H42.3V46.0761ZM28.8 7.00775L40.5 1.94001L52.2 7.00775V19.4605C52.1911 21.8442 51.0351 24.0769 49.0959 25.4559L40.5 31.5947L31.9041 25.4586C29.9652 24.0798 28.8092 21.8475 28.8 19.4641V7.00775ZM42.3 33.4428C42.7971 33.4428 43.2 33.8468 43.2 34.3452V36.1499C43.2 36.6483 42.7971 37.0523 42.3 37.0523H36.9C36.4029 37.0523 36 36.6483 36 36.1499C36 34.6548 37.2088 33.4428 38.7 33.4428H42.3ZM27 15.3953V17.2001H20.7V15.3953H27ZM27 13.5906H25.2V11.7858H27V13.5906ZM10.8387 13.5906C11.2199 12.5094 12.2393 11.7864 13.383 11.7858H23.4V13.5906H20.7C19.7059 13.5906 18.9 14.3986 18.9 15.3953V17.2001C18.9 18.1968 19.7059 19.0048 20.7 19.0048H27V19.4641C27.0097 22.4313 28.4472 25.2114 30.8601 26.9295L32.4 28.0286H5.7708L10.8387 13.5906ZM1.8 32.5404C1.8 31.0453 3.00883 29.8333 4.5 29.8333H34.929L37.6488 31.7752C35.6305 32.2614 34.2057 34.0687 34.2 36.1499C34.2 37.645 35.4088 38.8571 36.9 38.8571H42.3C43.7912 38.8571 45 37.645 45 36.1499V34.3452C44.9971 33.2305 44.313 32.2316 43.2765 31.8285L45.5049 30.2376C46.3121 30.7219 46.8044 31.5973 46.8 32.5404L46.8 46.0761H44.1V44.2713C44.1 43.2746 43.2941 42.4666 42.3 42.4666H40.5C39.5059 42.4666 38.7 43.2746 38.7 44.2713V46.0761H9.9V44.2713C9.9 43.2746 9.09411 42.4666 8.1 42.4666H6.3C5.30589 42.4666 4.5 43.2746 4.5 44.2713V46.0761H1.8V32.5404Z" fill="#8ED74F"/>
<path d="M16.2 13.5898H14.6601C13.516 13.5911 12.4963 14.3137 12.1131 15.3946L8.73451 25.0211C8.56949 25.4913 8.81589 26.0066 9.28486 26.1721C9.75383 26.3376 10.2678 26.0905 10.4328 25.6203L13.8114 15.9974C13.9382 15.6363 14.2783 15.3947 14.6601 15.3946H16.2C16.6971 15.3946 17.1 14.9906 17.1 14.4922C17.1 13.9939 16.6971 13.5898 16.2 13.5898Z" fill="#8ED74F"/>
<path d="M6.3001 38.8567H11.7001C13.1913 38.8567 14.4001 37.6447 14.4001 36.1496C14.3971 33.659 12.3841 31.6407 9.9001 31.6377H6.3001C4.80893 31.6377 3.6001 32.8497 3.6001 34.3448V36.1496C3.6001 37.6447 4.80893 38.8567 6.3001 38.8567ZM5.4001 34.3448C5.4001 33.8465 5.80304 33.4424 6.3001 33.4424H9.9001C11.3913 33.4424 12.6001 34.6545 12.6001 36.1496C12.6001 36.6479 12.1972 37.0519 11.7001 37.0519H6.3001C5.80304 37.0519 5.4001 36.6479 5.4001 36.1496V34.3448Z" fill="#8ED74F"/>
<path d="M18.0001 44.2708H30.6001C31.5942 44.2708 32.4001 43.4627 32.4001 42.466V38.8565C32.4001 37.8598 31.5942 37.0518 30.6001 37.0518H18.0001C17.006 37.0518 16.2001 37.8598 16.2001 38.8565V42.466C16.2001 43.4627 17.006 44.2708 18.0001 44.2708ZM18.0001 38.8565H30.6001V42.466H18.0001V38.8565Z" fill="#8ED74F"/>
</svg>
