<svg width="55" height="46" viewBox="0 0 55 46" fill="none" xmlns="http://www.w3.org/2000/svg">
<path d="M53.858 29.9915C52.1101 27.548 48.8072 26.7912 46.174 28.2311L37.3379 33.0636C36.9734 31.6072 35.6572 30.5253 34.093 30.5253H26.8734C26.4476 29.663 25.5601 28.0207 24.6889 27.3754C19.5365 22.7046 10.5806 26.879 9.15866 27.5887H6.10702V25.5177H0V27.1151H4.51381V39.3614H0V40.9588H6.10702V38.8878H11.2959L31.1617 45.1881L54.3531 30.6837L53.858 29.9915ZM30.9419 43.4431L11.6592 37.3278L11.5418 37.2904H6.10702V29.1857H9.54555L9.71889 29.0946C9.81095 29.0464 18.982 24.3049 23.6489 28.5857L23.6874 28.6211L23.7302 28.6514C24.2796 29.036 25.182 30.6405 25.6476 31.6571L25.8608 32.1223H34.093C35.0592 32.1223 35.8455 32.9106 35.8455 33.8794C35.8455 34.8486 35.0592 35.6365 34.093 35.6365H23.2599V37.2339H34.093C35.5764 37.2339 36.8366 36.261 37.2737 34.9184L46.937 29.6335C48.6086 28.7196 50.6492 29.0144 51.9965 30.2754L30.9419 43.4431Z" fill="#8ED74F"/>
<path d="M12.5856 18.7043H15.7293C16.1124 21.1154 18.1999 22.9639 20.7108 22.9639C23.2213 22.9639 25.3088 21.1154 25.692 18.7043H35.9089C36.2921 21.1154 38.3796 22.9639 40.8905 22.9639C43.401 22.9639 45.4885 21.1154 45.8716 18.7043H50.2901V11.5164C50.2901 9.31445 48.5032 7.52287 46.3071 7.52287H40.4596L37.2736 0.0688477H20.2161L18.0921 7.52287H16.5686C14.3724 7.52287 12.5856 9.31445 12.5856 11.5164V18.7043ZM20.7108 21.3665C18.8075 21.3665 17.259 19.814 17.259 17.9056C17.259 15.9972 18.8075 14.4447 20.7108 14.4447C22.6142 14.4447 24.1627 15.9972 24.1627 17.9056C24.1627 19.814 22.6142 21.3665 20.7108 21.3665ZM40.8905 21.3665C38.9871 21.3665 37.4387 19.814 37.4387 17.9056C37.4387 15.9972 38.9871 14.4447 40.8905 14.4447C42.7939 14.4447 44.3423 15.9972 44.3423 17.9056C44.3423 19.814 42.7939 21.3665 40.8905 21.3665ZM26.2866 1.66626H36.2232L38.7267 7.52287H26.2866V1.66626ZM21.4179 1.66626H24.6934V7.52287H19.7488L21.4179 1.66626ZM14.1788 11.5164C14.1788 10.1951 15.2511 9.12028 16.5686 9.12028H46.3071C47.6245 9.12028 48.6969 10.1951 48.6969 11.5164V17.1069H45.8716C45.4889 14.6962 43.401 12.8473 40.8905 12.8473C38.3796 12.8473 36.2921 14.6962 35.9089 17.1069H25.6924C25.3092 14.6962 23.2213 12.8473 20.7108 12.8473C18.2004 12.8473 16.1124 14.6962 15.7293 17.1069H14.1788V11.5164Z" fill="#8ED74F"/>
<path d="M11.8956 3.79639H13.4884V5.39379H11.8956V3.79639Z" fill="#8ED74F"/>
<path d="M5.52271 3.79639H7.11591V5.39379H5.52271V3.79639Z" fill="#8ED74F"/>
<path d="M8.70911 3.79639H10.3023V5.39379H8.70911V3.79639Z" fill="#8ED74F"/>
<path d="M8.65613 8.05615H10.2493V9.65356H8.65613V8.05615Z" fill="#8ED74F"/>
<path d="M5.46973 8.05615H7.06293V9.65356H5.46973V8.05615Z" fill="#8ED74F"/>
<path d="M2.28369 8.05615H3.87648V9.65356H2.28369V8.05615Z" fill="#8ED74F"/>
<path d="M15.0604 28.8363L15.4312 30.3897C17.1077 29.9876 18.5794 29.8907 19.7098 30.1103L20.0121 28.542C18.6524 28.2779 16.9646 28.3794 15.0604 28.8363Z" fill="#8ED74F"/>
<path d="M11.9163 29.8482L12.5117 31.33C12.9816 31.1404 13.468 30.9641 13.9565 30.8061L13.468 29.2856C12.9434 29.4553 12.4213 29.6445 11.9163 29.8482Z" fill="#8ED74F"/>
<path d="M29.5261 10.7178H33.7745V12.3152H29.5261V10.7178Z" fill="#8ED74F"/>
<path d="M26.3397 10.7178H27.9329V12.3152H26.3397V10.7178Z" fill="#8ED74F"/>
<path d="M40.0939 17.1069H41.6871V18.7043H40.0939V17.1069Z" fill="#8ED74F"/>
<path d="M19.9142 17.1069H21.5074V18.7043H19.9142V17.1069Z" fill="#8ED74F"/>
</svg>
