<svg width="23" height="25" viewBox="0 0 23 25" fill="none" xmlns="http://www.w3.org/2000/svg">
<g id="Icon TEL">
<path id="Vector" d="M18.1605 14.8904C17.6897 14.378 17.1217 14.104 16.5198 14.104C15.9227 14.104 15.3499 14.3729 14.8596 14.8853L13.3256 16.4834C13.1994 16.4124 13.0732 16.3464 12.9519 16.2805C12.7771 16.1892 12.6121 16.1029 12.4713 16.0116C11.0344 15.0578 9.7286 13.8148 8.47619 12.2066C7.8694 11.405 7.46163 10.7302 7.16552 10.0453C7.56358 9.6648 7.9325 9.26908 8.29172 8.88858C8.42764 8.74652 8.56356 8.59939 8.69948 8.45734C9.71889 7.39193 9.71889 6.01198 8.69948 4.94657L7.37426 3.56154C7.22377 3.40426 7.06844 3.24192 6.92281 3.07957C6.63155 2.76502 6.32573 2.44032 6.0102 2.13592C5.53933 1.64888 4.97623 1.39014 4.384 1.39014C3.79177 1.39014 3.21897 1.64888 2.73354 2.13592C2.72868 2.141 2.72868 2.141 2.72383 2.14607L1.07336 3.88623C0.452008 4.53563 0.0976438 5.32707 0.0199748 6.24535C-0.0965287 7.72678 0.320942 9.10673 0.641327 10.0098C1.42773 12.2269 2.60247 14.2816 4.35488 16.4834C6.48106 19.1368 9.03929 21.2321 11.9616 22.7084C13.0781 23.2614 14.5683 23.9159 16.2334 24.0275C16.3353 24.0326 16.4421 24.0377 16.5392 24.0377C17.6605 24.0377 18.6023 23.6166 19.3401 22.7795C19.345 22.7693 19.3547 22.7642 19.3596 22.7541C19.612 22.4345 19.9032 22.1453 20.2091 21.8358C20.4178 21.6278 20.6314 21.4097 20.8401 21.1814C21.3207 20.6588 21.5731 20.05 21.5731 19.426C21.5731 18.7969 21.3158 18.1931 20.8256 17.6858L18.1605 14.8904ZM19.8984 20.2326C19.8935 20.2326 19.8935 20.2377 19.8984 20.2326C19.7091 20.4457 19.5149 20.6385 19.3062 20.8516C18.9906 21.1661 18.6702 21.4959 18.3693 21.8663C17.879 22.4142 17.3013 22.6729 16.5441 22.6729C16.4712 22.6729 16.3936 22.6729 16.3208 22.6679C14.879 22.5715 13.5392 21.9829 12.5344 21.4807C9.78685 20.0906 7.37426 18.117 5.36943 15.6159C3.71411 13.5307 2.60732 11.6028 1.87432 9.5329C1.42287 8.26963 1.25782 7.28539 1.33064 6.35697C1.37918 5.76338 1.59763 5.27127 2.00053 4.85018L3.65585 3.12016C3.89372 2.88678 4.14614 2.75995 4.39371 2.75995C4.69953 2.75995 4.9471 2.95273 5.10244 3.11508C5.10729 3.12016 5.11215 3.12523 5.117 3.1303C5.41312 3.41948 5.69467 3.71881 5.99078 4.03844C6.14126 4.20078 6.2966 4.36313 6.45194 4.53055L7.77716 5.91558C8.29172 6.45336 8.29172 6.95055 7.77716 7.48833C7.63639 7.63546 7.50047 7.78258 7.35969 7.92464C6.95193 8.36095 6.56359 8.76682 6.14126 9.16254C6.13155 9.17269 6.12184 9.17776 6.11699 9.18791C5.69952 9.62422 5.77719 10.0504 5.86457 10.3396C5.86942 10.3548 5.87427 10.37 5.87913 10.3852C6.22379 11.2578 6.70922 12.0797 7.44707 13.0589L7.45193 13.064C8.79172 14.7889 10.2043 16.1333 11.7626 17.1632C11.9616 17.2952 12.1655 17.4017 12.3596 17.5032C12.5344 17.5945 12.6994 17.6807 12.8402 17.772C12.8596 17.7822 12.879 17.7974 12.8985 17.8076C13.0635 17.8938 13.2188 17.9344 13.379 17.9344C13.7819 17.9344 14.0344 17.6706 14.1169 17.5843L15.7771 15.8492C15.9421 15.6767 16.2043 15.4687 16.5101 15.4687C16.811 15.4687 17.0586 15.6666 17.2091 15.8391C17.2139 15.8442 17.2139 15.8442 17.2188 15.8492L19.8935 18.6447C20.3935 19.1622 20.3935 19.6949 19.8984 20.2326Z" fill="black"/>
<path id="Vector_2" d="M12.4131 5.71806C13.6849 5.94129 14.8402 6.57039 15.7625 7.53433C16.6848 8.49827 17.2819 9.70573 17.5003 11.035C17.5537 11.3698 17.8304 11.6032 18.1459 11.6032C18.1848 11.6032 18.2188 11.5981 18.2576 11.593C18.6168 11.5321 18.8547 11.177 18.7964 10.8016C18.5343 9.19332 17.8061 7.72712 16.6945 6.56531C15.5829 5.40351 14.18 4.64251 12.6412 4.36854C12.282 4.30766 11.9471 4.55626 11.884 4.92662C11.8209 5.29697 12.0539 5.65718 12.4131 5.71806Z" fill="black"/>
<path id="Vector_3" d="M22.9566 10.6036C22.5245 7.95534 21.3304 5.54549 19.4954 3.62775C17.6605 1.71002 15.3547 0.461972 12.8208 0.0104417C12.4664 -0.0555121 12.1314 0.198156 12.0683 0.568512C12.0101 0.943942 12.2479 1.294 12.6072 1.35996C14.8693 1.76075 16.9324 2.88197 18.5731 4.59169C20.2139 6.30649 21.2818 8.46268 21.6653 10.8269C21.7187 11.1617 21.9954 11.3951 22.3109 11.3951C22.3498 11.3951 22.3838 11.39 22.4226 11.3849C22.777 11.3291 23.0197 10.974 22.9566 10.6036Z" fill="black"/>
</g>
</svg>
